<svg width="499" height="371" viewBox="0 0 499 371" fill="none" xmlns="http://www.w3.org/2000/svg">
<rect x="0.856856" y="0.54814" width="497.595" height="366.804" fill="#0F1819" stroke="#E7561D" stroke-width="1.09628"/>
<rect x="0.856856" y="1.94169" width="497.595" height="26.775" fill="#0F1819" stroke="#E7561D" stroke-width="1.09628"/>
<rect x="0.856856" y="343.364" width="497.595" height="26.775" fill="#0F1819" stroke="#E7561D" stroke-width="1.09628"/>
<line x1="67.6597" y1="342.816" x2="67.6597" y2="369.294" stroke="#E7561D" stroke-width="1.09628"/>
<line x1="196.605" y1="344.21" x2="196.605" y2="370.687" stroke="#E7561D" stroke-width="1.09628"/>
<line x1="442.067" y1="344.21" x2="442.067" y2="370.687" stroke="#E7561D" stroke-width="1.09628"/>
<line y1="-0.54814" x2="23.1507" y2="-0.54814" transform="matrix(0.770129 0.637888 -0.717274 0.696791 11.1836 8.36133)" stroke="#E7561D" stroke-width="1.09628"/>
<line y1="-0.54814" x2="23.0731" y2="-0.54814" transform="matrix(-0.750076 0.661352 -0.738655 -0.674083 28.4902 6.96783)" stroke="#E7561D" stroke-width="1.09628"/>
<rect x="44.3564" y="10.303" width="15.9928" height="11.4458" stroke="#E7561D" stroke-width="1.09628"/>
<rect x="41.2493" y="7.51597" width="15.9928" height="11.4458" fill="#0F1819" stroke="#E7561D" stroke-width="1.09628"/>
<path d="M68.6652 15.3291H88.0847" stroke="#E7561D" stroke-width="1.09628"/>
<line y1="-0.453104" x2="22.8994" y2="-0.453104" transform="matrix(0.953362 -0.301828 0.36614 0.93056 17.3978 358.089)" stroke="#E7561D" stroke-width="0.906208"/>
<line y1="-0.453104" x2="22.9371" y2="-0.453104" transform="matrix(0.960581 0.277999 -0.338448 0.940985 17.3978 358.089)" stroke="#E7561D" stroke-width="0.906208"/>
<line y1="-0.405586" x2="20.4979" y2="-0.405586" transform="matrix(-0.953362 -0.301828 -0.36614 0.93056 479.883 357.364)" stroke="#E7561D" stroke-width="0.811172"/>
<line y1="-0.405586" x2="20.5316" y2="-0.405586" transform="matrix(-0.960581 0.277999 0.338448 0.940985 479.883 357.364)" stroke="#E7561D" stroke-width="0.811172"/>
</svg>
